<?xml version="1.0"?>
<svg xmlns:rdf="http://www.w3.org/1999/02/22-rdf-syntax-ns#" xmlns="http://www.w3.org/2000/svg" xmlns:cc="http://web.resource.org/cc/" xmlns:xlink="http://www.w3.org/1999/xlink" xmlns:dc="http://purl.org/dc/elements/1.1/" xmlns:svg="http://www.w3.org/2000/svg" id="choirboy_xA0_Image_1_" style="enable-background:new 0 0 144.96 195.36" xml:space="preserve" viewBox="0 0 144.96 195.36" version="1.1" y="0px" x="0px">
<g clip-rule="evenodd" fill-rule="evenodd" >
	<path d="m69.12 7.68c0.036-0.597 0.812-0.07 0.96 0-0.158 0.719-0.513-0.229-0.96 0z"/>
	<path d="m79.2 35.52c0.185 0.988-0.818 1.511-1.439 0.96-0.084-0.882 0.873-0.726 1.439-0.96z"/>
	<path d="m71.04 41.28c-1.48-0.766-1.728 1.147-3.12 1.2-0.285-1.949-0.728-3.604 0.24-5.76 0.985 0.214 1.498 0.902 2.64 0.96-0.637 1.249 1.669 2.223 0.24 3.6z"/>
	<path d="m71.28 39.12c-0.104-0.904 0.507-1.093 0.96-1.44 1.673 0.007 2.054 1.306 3.12 1.92 0.122 1.322-0.395 2.006-1.68 1.92-0.087-1.084-0.767-2.234-2.4-2.4z"/>
	<path d="m72.96 43.44c0.922 1.558 2.659 2.3 3.119 4.32-0.464 0.416-0.685 1.075-1.199 1.44-1.376-0.073-2.722 0.012-4.081-0.24-0.184-0.034-0.757-0.463-0.96-0.48-1.457-0.123-3.062 0.272-3.84-1.44 0.708-0.812 1.406-1.634 1.44-3.12 1.35-1.142 3.216-0.295 5.521-0.48zm-4.8 1.2c0.425-0.055 1.202 0.242 0.96-0.48-0.547-0.067-0.902 0.058-0.96 0.48zm1.44 0c0.421 0.587 1.447 0.567 2.16 0.24 0.543-0.04 1.055 1.154 1.439 0.48-0.614-1.555-2.346-1.263-3.599-0.72z" />
	<path d="m61.2 49.92c0.7-0.353 0.7 1.073 0 0.72v-0.72z"/>
	<path d="m72 50.16c0.145 0.575 0.345 1.095 0.24 1.92-1.396 0.851-3.731 0.372-4.8-0.48 0.958-0.98 2.501-2.323 4.56-1.44z"/>
	<path d="m134.64 51.36c0.357-0.791 0.678 0.408 0.96 0.48-0.43 0.866-0.75-0.333-0.96-0.48z"/>
	<path d="m135.84 53.52c0.388 0.236 0.552 0.64 0.239 0.96-0.33-0.074-0.2-0.601-0.24-0.96z"/>
	<path d="m66.24 56.88c0.512-0.112 0.458 0.343 0.48 0.72-0.194-0.046-0.239-0.241-0.48-0.24v-0.48z"/>
	<path d="m77.04 57.12c0.388-0.068 0.414 0.227 0.721 0.24-0.322 0.558 0.033 1.793-0.96 1.68 0.094 0.974-0.088 1.672-0.96 1.68 0.039-0.279-0.054-0.427-0.24-0.48 1.182-0.559 1.198-2.23 1.439-3.12z"/>
	<path d="m80.4 57.12c0.388-0.068 0.413 0.227 0.72 0.24 0.203 1.083-0.562 1.198-0.72 1.92-0.483-0.268-0.275-1.856 0-2.16z"/>
	<path d="m78.48 57.84c0.388-0.067 0.413 0.227 0.72 0.24 0.198 0.678-0.338 0.622-0.239 1.2-0.614-0.027-0.477-0.803-0.481-1.44z"/>
	<path d="m74.88 59.04c0.699-0.353 0.699 1.073 0 0.72v-0.72z"/>
	<path d="m138.48 60.48c0.474 0.189 0.863 0.839 0.48 1.2-0.52-0.035-0.52-0.605-0.48-1.2z"/>
	<path d="m75.84 61.2c0.913-0.415-1.528 0.695 0 0z"/>
	<path d="m128.4 64.08c0.88 1.055-0.66 0.912 0 0z"/>
	<path d="m134.16 72.24c1.147-0.267 1.106 0.654 1.2 1.44-1.15 0.267-1.11-0.654-1.2-1.44z"/>
	<path d="m135.12 74.16h0.721c-0.004 0.825 1.504 2.238 0 2.4 0.24-1.28-1.05-1.028-0.72-2.4z"/>
	<path d="m100.08 78.96c0.767-0.206 0.742 0.378 1.2 0.48 0.049 1.168-0.106 2.134-1.439 1.92-0.237-0.95-0.334-1.743 0.239-2.4z"/>
	<path d="m40.32 80.64c0.428 0.176 0.035 0.437 0 0.72-0.427-0.176-0.034-0.437 0-0.72z"/>
	<path d="m97.68 81.36h0.72c0.538 0.924 0.477 2.065 0.96 3.36 0.593 1.587 0.652 4.445 1.2 6.96 0.17 0.778 0.602 1.437 0.72 2.16 0.302 1.836 0.137 3.753 0.48 5.52 0.418 2.153 1.781 4.133 0.96 6-1.222-0.298-1.26-1.78-1.44-3.12-0.647-1.289-1.493-2.53-1.68-4.08-0.041-0.339 0.306-0.851 0.24-1.2-0.816-4.359-2.769-9.155-2.4-14.88-0.067-0.388 0.227-0.413 0.24-0.72z" />
	<path d="m39.6 81.84c1.128 0.112 0.523 1.324 0.24 1.92-0.541-0.179-0.094-1.346-0.24-1.92z"/>
	<path d="m49.92 82.32c-0.609 1.471-0.763 3.397-1.44 4.8-1.724-0.339-0.284-5.651 1.44-4.8z"/>
	<path d="m52.32 99.12c-0.162-3.182 1-8.334-0.48-11.28 0.288-0.673 0.264-1.656 0.24-2.64 1.082-0.412 0.827-1.532 1.44-1.92 1.426-0.41 1.826 2.134 2.16 3.6-1.391 2.449-1.37 6.311-2.4 9.12-0.072 1.288 0.345 3.065-0.96 3.12z"/>
	<path d="m94.08 87.6c-1.027 0.283-0.979-0.018-1.92-0.24-0.521-1.607-0.44-2.715 0.48-3.84 2.235 0.097 0.782 2.407 1.44 4.08z"/>
	<path d="m39.36 84h0.72v0.72h-0.72v-0.72z"/>
	<path d="m112.8 84.72c0.388-0.068 0.413 0.227 0.72 0.24 1.706 5.042 1.458 10.807 1.68 15.84 1.013-0.337 0.758-1.748 0.96-2.641 0.205-0.905 0.535-1.946 0.721-2.88 0.406-2.051 0.289-4.363 1.439-5.76 0.872 1.017 0.751 2.354 0.72 3.6-0.177 7.254-2.118 15.004-3.359 21.36-0.492 0.388-0.605 1.155-0.96 1.68 0.374 2.696 0.637 5.583 0.72 7.44 1.563-0.276 1.583-2.098 3.6-1.92 0.215 1.414-1.035 1.364-1.199 2.399 4.126 1.021 11.934-2.511 12.479 2.881-3.422 2.811-7.574-2.189-11.28-0.48 1.747 1.373 5.715 0.526 6.721 2.64v1.44c-0.514 0.526-1.166 0.915-2.4 0.72-2.808 3.078-8.642-0.702-11.52 0.48 0.342 1.144 1.163 0.316 2.399 0.479 1.075 0.285 1.867 0.854 3.36 0.721 0.438 0.763 0.788 1.612 1.68 1.92 0.983-0.218 0.939-1.462 1.681-1.92 2.762-1.747 6.385 0.979 8.64 2.64 2.972 2.188 4.756 3.821 5.76 7.439-1.253 0.214-1.227-0.853-1.68-1.439-4.067-2.173-6.549-5.931-12.72-6 0.077 0.888 2.493 1.503 2.88 2.88-0.175 0.817-1.229 1.657-1.92 1.2-1.117-0.15-0.766-1.399-0.96-1.92-2.85-0.19-4.387-1.693-6-3.12-2.438 0.085-4.457-1.857-4.801-4.32-0.096-0.689 0.123-1.408 0-2.16-0.279-1.719-1.046-3.525-1.199-5.52-0.1-1.293 0.103-2.484 0-3.84-0.322-4.241-1.939-8.263-1.44-11.04 1.271 0.406 1.357 1.568 1.68 3.12 0.754 3.625 1.973 8.405 2.16 12.479 0.773-1.417 0.216-4.469 0.96-6.96-1.771-3.813-1.723-10.01-1.439-16.08 0.237-5.108-0.965-10.441 0.479-14.4 0.351 0.209 0.93 0.191 0.72 0.96 0.5-0.464 0.46-1.462 0.72-2.16zm4.32 45.84c0.688 0.047 1.311 0.03 1.2-0.72-0.75-0.11-0.98 0.3-1.2 0.72zm-0.24 0c-0.146-0.139-1.139-0.562-1.2 0 0.15 0.14 1.14 0.56 1.2 0z" />
	<path d="m88.32 84.96c0.524 0.035 0.516 0.605 0.48 1.2h-1.2c-0.329-0.969 0.431-0.85 0.72-1.2z"/>
	<path d="m58.56 85.92c0.961-0.001 1.794 0.126 1.68 1.2-0.78 0.605-1.991 0.037-1.68-1.2z"/>
	<path d="m71.76 87.36c-1.565 1.216-4.285-0.276-6.24-0.24 2.047-0.991 3.912 0.208 6.24 0.24z"/>
	<path d="m82.56 87.6c-0.037 0.763-0.544 1.056-0.48 1.92-0.755 0.115-0.938-0.342-1.439-0.48-0.502 1.979-0.104 4.856-0.72 6.72-1.299 0.338-1.11-0.811-1.681-1.2 1.211-1.421 0.211-4.651 1.681-6.72 1.144 0.185 1.543-0.375 2.639-0.24z"/>
	<path d="m59.52 91.68c0.063 0.989-1.507 1.197-2.16 0.72 0.16-1.104 1.652-1.921 2.16-0.72z"/>
	<path d="m58.8 95.52c-1.015-0.025-1.434-0.646-1.68-1.44 0.919-0.787 2.471 0.517 1.68 1.44z"/>
	<path d="m56.16 96.24c1.399 0.121 2.655 0.385 2.64 1.92-1.3 0.526-2.099-0.948-2.64-1.92z"/>
	<path d="m55.68 97.68c1.128 0.071 1.381 1.019 2.16 1.439-0.084 0.315-0.422 0.378-0.48 0.721-0.757-0.523-1.562-0.999-1.68-2.16z"/>
	<path d="m55.68 99.36c0.942 0.338 1.646 0.913 1.92 1.92-1.258 0.06-2.443-0.97-1.92-1.92z"/>
	<path d="m96.96 99.6c0.194 0.046 0.239 0.24 0.479 0.24v0.479c-0.596-0.035-1.165-0.045-1.2 0.48-0.747-0.46 0.559-0.859 0.721-1.2z"/>
	<path d="m51.6 100.08h0.72v0.96c-0.801 0.24-0.787-0.33-0.72-0.96z"/>
	<path d="m23.52 116.16h1.2c0.803 2.317 2.642 3.599 3.12 6.24-2.057-0.44-4.166-3.38-4.32-6.24z"/>
	<path d="m36 116.4c-0.095-0.466 1.093-0.351 0.72 0.24h-0.48c0.044-0.2-0.094-0.23-0.24-0.24z"/>
	<path d="m37.92 117.12c0.7-0.353 0.7 1.073 0 0.721v-0.72z"/>
	<path d="m96.24 124.56c-0.039 0.279 0.053 0.427 0.24 0.479-0.381 0.893-1.766 1.096-2.4 0.48 0.034-1.01 1.099-0.98 2.16-0.96z"/>
	<path d="m102.72 129.6c0.388-0.067 0.413 0.227 0.72 0.24-1.099 1.44 0.707 3.613 0.24 5.04-2.1-0.71-2.07-3.71-0.96-5.28z"/>
	<path d="m85.2 130.8c0.513-0.112 0.457 0.343 0.48 0.72-0.194-0.046-0.239-0.241-0.48-0.24v-0.48z"/>
	<path d="m86.64 132.24c0.453 0.507 1.202 0.719 1.68 1.2-0.691 0.74-2.369-0.52-1.68-1.2z"/>
	<path d="m88.56 134.16c0.176-0.427 0.437-0.034 0.72 0-0.176 0.43-0.437 0.04-0.72 0z"/>
	<path d="m116.4 137.52c-2.028-0.131-2.708-1.612-4.32-2.16 1.06-1.46 3.86 0.72 4.32 2.16z"/>
	<path d="m12.72 141.12c0.983 2.419 1.033 6.779 0.96 8.881-0.319-0.801-0.18-2.061-1.44-1.921 0.118-0.757-0.432-0.847-0.24-1.68 0.893 0.405 0.471-0.051 0.96-0.479-0.074-0.326-0.601-0.199-0.96-0.24 0.105-0.825-0.095-1.346-0.24-1.92 0.453-0.18 0.167-0.717 0.72-0.24-0.142-1.02 0.173-1.59 0.24-2.4z" />
	<path d="m11.28 141.36h0.72v0.96c-0.632 0.07-0.788-0.33-0.72-0.96z"/>
	<path d="m129.84 144.96c0.699-0.354 0.699 1.072 0 0.72v-0.72z"/>
	<path d="m132.24 151.44c0.279-0.039 0.428 0.053 0.48 0.24 0.247 1.928-0.415 5.208-2.16 6.96 0.8-2.51 1.33-4.76 1.68-7.2z"/>
	<path d="m128.88 156.96c0.89 0.079 0.527 2.659 0.239 3.119-0.94-0.12-0.46-2.6-0.24-3.12z"/>
	<path d="m92.16 163.92h0.721c0.381 4.739 1.005 9.234 1.92 13.439-1.225 0.008-0.532-1.047-0.721-1.68-0.247-0.834-0.775-1.514-0.96-2.4-0.195-0.941 0.17-1.874 0-2.88-0.147-0.878-0.822-1.615-0.96-2.399-0.067-0.39 0.227-0.541 0.24-0.961 0.033-1.02-0.775-1.87-0.24-3.12z"/>
	<path d="m54.24 164.64c1.605 0.795 1.547 3.253 2.16 5.04-2.176-0.22-1.406-3.39-2.16-5.04z"/>
	<path d="m38.88 165.12h0.72c0.535 0.689-0.124 1.757-0.24 2.881-0.161 1.55 0.446 3.828-0.96 4.079-0.29-1.84 0.319-4.78 0.48-6.96z"/>
	<path d="m89.52 165.84c0.388-0.068 0.413 0.227 0.72 0.239 0.873 7.102 2.378 13.605 4.32 20.16-0.742 0.002-0.531-0.969-0.72-1.439-0.304-0.754-0.829-1.043-0.721-2.4-0.372-0.428-0.659-0.94-0.96-1.439-0.755-3.086-1.425-6.255-2.399-9.12 0.439-1.616-0.494-3.568-0.721-5.28 0.225-0.18 0.365-0.44 0.481-0.72z"/>
	<path d="m46.8 179.28c-2.198-0.521-1.586-3.854-3.6-4.56-0.216-3-2.893-4.768-2.64-7.44h-0.48c0.925-1.2 0.833 2.222 2.16 2.16 0.996 2.845 2.824 4.855 3.6 7.92 0.404 0.56 0.898 1.02 0.96 1.92z"/>
	<path d="m52.8 168.24c1.088-0.128 0.561 1.359 0.96 1.92 0.417 1.23 2.933 1.482 1.92 3.36-2.321-0.4-2.71-2.73-2.88-5.28z"/>
	<path d="m40.08 174.48h0.72c0.071 1.369 1.398 1.482 1.44 2.88 0.824 0.705 1.27 1.93 1.92 2.88 0.591 0.863 1.731 1.631 1.44 2.641-1.568 0.052-1.818-1.732-2.4-2.641-0.564-0.88-1.469-1.6-1.68-2.64-0.55-0.25-0.667-0.934-1.2-1.2 0.105-0.82-0.095-1.34-0.24-1.92z"/>
	<path d="m38.88 176.64c-0.135 0.584-0.206 1.234-0.96 1.2-0.691-0.63 0.3-1.92 0.96-1.2z"/>
	<path d="m5.52 178.56c-0.755 0.115-0.938-0.342-1.44-0.48 0.095-0.81 1.859-0.64 1.44 0.48z"/>
	<path d="m94.56 177.6c0.361 0.607 1.313 1.874 0.72 2.64-0.968-0.15-0.652-1.59-0.72-2.64z"/>
	<path d="m7.68 177.84c1.425 0.494 2.724 1.115 2.88 2.88-1.231 0.19-1.389-0.691-1.68-1.44-0.507-0.37-1.486-0.27-1.2-1.44z"/>
	<path d="m36 178.8c-0.219 0.42-0.083 1.197-0.48 1.439-0.973 0.05-0.436-1.86 0.48-1.44z"/>
	<path d="m4.8 180c0.524-0.044 0.764 0.196 0.72 0.72-0.411 0.05-0.622-0.409-0.72 0 0.43 1.422 2.505-0.277 2.88 1.2h-2.88c-0.153-0.55-0.476-1.45 0-1.92z"/>
	<path d="m39.6 181.68h0.72c0.762 2.518 2.121 4.439 3.6 6.24-1.114 1.532 0.797 1.598 0.48 3.6-0.193 0.206-0.657 0.143-0.72 0.48-1.754-0.292-2.207-2.635-1.44-3.841-0.899-2-2.873-4.14-2.64-6.48z"/>
	<path d="m35.04 182.16c0.517 0.194 0.72 1.465-0.24 1.44-0.006-0.56 0.413-0.71 0.24-1.44z"/>
	<path d="m90.24 182.64c0.722 0.318 0.924 1.156 1.2 1.92-0.7-0.34-1.27-0.81-1.2-1.92z"/>
	<path d="m24.96 182.88c1.001 0.994 1.926 4.37 1.2 5.52-1.236-1-0.705-3.78-1.2-5.52z"/>
	<path d="m91.68 186c0.697-0.131 1.903 1.291 1.92 2.64-1.46-0.06-0.934-2.1-1.92-2.64z"/>
	<path d="m133.68 188.16c1.181 0.277-0.537 2.32-0.96 2.641-0.76 0.575-2.197 0.73-2.88 0.96 0.008-0.792 0.683-0.918 1.439-0.96 0.52-1.16 2.04-1.32 2.4-2.64z"/>
	<path d="m118.56 190.8c-0.188 1.972-1.928 2.392-2.4 4.08-0.637-0.003-1.37 0.09-1.68-0.24-0.15-2.471 2.653-1.987 3.12-3.84h0.96z"/>
	<path d="m127.92 194.16c-0.102 0.859-1.245 0.676-2.16 0.721 0.68-0.13 1.52-1.34 2.16-0.72z"/>
	<path d="m114.24 77.28c-0.818-1.501-2.531-2.108-3.12-3.84 2.449-0.303 3.727 2.466 5.521 3.6 0.442-0.615-0.967-1.424-0.96-2.4 0.278-0.202 0.644-0.317 1.2-0.24-0.062-1.51-1.985-2.265-1.681-3.36 0.714-0.143 1.989 0.984 2.88 1.44-1.189-2.57-3.465-4.055-4.319-6.96 1.242-0.462 1.646 0.825 2.399 1.44 0.901 0.736 2.196 1.166 2.4 2.64 1.84 0.32 2.131 2.189 3.6 2.88 0.556-0.649-0.68-1.549-1.199-1.92-0.9-3.031-4.049-5.058-4.32-7.92 1.475 0.125 1.69 1.51 2.399 2.4 2.146 1.935 3.503 4.658 5.28 6.96 2.285 0.035 2.079 2.562 3.601 3.36 0.368-1.877-3.311-4.118-2.16-6-1.714-2.489-3.006-5.357-4.8-8.16-0.537-0.838-1.758-1.542-1.2-2.64 1.187 0.164 1.159 1.221 1.68 1.92 1.669 2.242 3.488 4.28 5.28 6.96 0.7 1.048 1.796 1.944 2.399 2.88 0.147 0.228 0.028 0.874 0.24 1.2 0.239 0.368 1.028 0.357 0.72 1.44 1.326 1.235 1.792 3.329 3.12 4.56-0.716-3.765-3.056-7.984-4.56-11.76 0.398-1.111 0.645 0.362 1.439 0.24-1.902-3.777-4.573-6.786-6.239-10.8-0.713-0.888-1.833-1.368-1.92-2.88-0.39-0.731-1.219-1.022-1.921-1.44-0.016-0.816-0.074-1.675 0.48-1.92 0.971 0.309 1.595 1.391 2.16 2.16 0.881 1.2 1.421 2.594 2.88 3.36 1.813 3.466 3.996 6.564 5.52 10.32 1.227 2.126 3.29 4.451 3.36 6.96-0.617 0.497-1.128-0.649-1.68-0.96 2.228 5.693 6.032 11.887 6.72 19.92 0.074 0.326 0.601 0.199 0.96 0.24-1.229 1.23-0.118 2.794-0.96 4.32-1.923-0.797-1.658-3.782-3.12-5.04-0.09 3.032 1.454 6.02 2.16 9.36 0.752 3.56 0.632 7.528 1.68 11.04-1.369 0.348-0.706 1.453-0.72 2.88-0.49 0.569-0.949-0.33-1.44 0.24 0.527 1.393 0.769 3.072 1.44 4.319-0.496 0.384-0.756 1.005-1.44 1.2 1.646 4.222 2.218 9.133 2.641 13.44 0.067 0.867-1.052 0.549-1.44 0.96 0.786 1.793 3.008 6.081 0.24 7.2-0.385-3.966-2.187-8.294-3.6-12 0.359-0.681 0.268-1.812 0.72-2.4-1.062-3.578-2.2-7.08-3.6-10.32-1.231-0.111-1.476 0.766-2.4 0.96-0.231-3.368-2.472-4.728-3.12-7.68 0.839 0.281 1.313 0.927 2.4 0.96-0.364-1.172-1.763-1.736-2.16-2.64-0.201-0.457-0.039-1.412-0.24-2.16-0.25-0.93-0.892-1.888-1.2-3.12-1.331-5.317-2.228-10.33-4.8-14.16-0.483-0.719-1.173-1.054-1.68-1.68-1.814-2.24-2.32-3.77-5.04-5.28-3.869-2.147-7.514-3.096-12.24-6-0.81 0.151-1.104 0.815-1.2 1.68-1.382 0.218-1.308 1.892-2.88 1.92-0.296 0.504-0.664 0.936-0.96 1.44-1.526 1.284-3.771 1.594-6 2.4-3.593 1.3-5.604 2.74-10.32 3.12-2.121 0.171-4.434 0.556-7.199 0.48-1.535-0.042-2.237-0.39-3.36-0.48-2.625-0.209-5.214 0.227-7.68-0.24-5.537-1.048-9.81-3.847-13.92-6.24-0.082-1.278-0.566-2.154-0.96-3.12-0.787 0.48-1.175 0.989-1.92 0.96 2.729 3.586-1.518 8.301-0.96 12 0.775 0.985 1.784 1.736 2.16 3.12-0.597 1.256-1.621 1.615-1.44 3.12-0.833 0.192-0.922-0.357-1.68-0.24-0.189 0.989 1.149 0.451 0.96 1.44-0.361 0.359-1.011 0.429-1.2 0.96 0.331 1.029 2.287 0.434 2.16 1.92-1.858-0.634-2.936-0.315-3.84 0.96 1.74 1.875 7.919 1.338 11.04 2.64 1.067 0.386 1.439-2.072 1.92-0.72 0.7-0.41-0.544-0.873-0.24-1.68 0.812 0.468 1.521 1.039 2.16 1.68-0.058 0.422-0.413 0.547-0.96 0.48 0.134 0.586 0.928 0.511 0.72 1.439 3.587 1.213 5.587 4.013 9.36 5.04 9.271-1.53 16.657-6.221 26.16-6.72 0.074 1.104-0.978 0.573-1.439 0.72-2.138 0.679-4.211 0.926-6.961 1.68-4.146 1.138-8.339 2.987-12.239 4.08-1.534 0.43-3.201 0.063-4.08 1.681 0.437 1.113 1.402-0.212 1.92-0.48 2.502-0.291 4.095-1.478 7.2-1.68 1.39-0.851 3.29-1.189 5.279-1.44 2.736-2.544 9.156-1.404 11.521-4.319 0.654 0.386 1.072 1.007 2.399 0.72 0.588 5.371 0.191 11.193-0.96 16.56 0.374 1.027 1.083 0.312 2.16 0.721-0.354 1.284-1.913 0.548-2.88 0.72-1.708 0.304-3.353 0.938-4.56 1.439 1.407-0.144 1.738 1.626 2.399 2.881-0.489 0.596-0.98 0.334-1.68 0-0.254-0.895 0.505-0.775 0.72-1.2-1.161-0.69-1.621-0.607-2.64-1.44-0.936 0.646 0.743 0.674 0.479 1.44-1.057 0.177-0.982-0.777-1.68-0.96-1.681 0.358-1.351 1.338-2.88 0.96-0.416 0.385-0.965 0.973-0.48 1.92 1.449-0.192 1.892-0.86 3.36-0.48 0.962-0.309-0.065-0.496 0-1.2 1.481 0.498 1.558 1.301 2.88 0.961 0.021 0.38-0.115 0.915 0.24 0.96-1.057 0.736-1.299 1.056-2.4 0.239 0.176 1.38 2.604 2.491 3.601 3.84 1.271-0.572 3.634-1.321 5.28-0.72-0.028 1.053-2.836 1.629-4.32 1.44-1.686-0.215-2.435-1.727-3.601-1.92-0.639 0.425 0.566 1.015 0.721 1.439-0.479-0.051-1.594 0.193-2.4 0.48-0.664-0.384-1.811-1.538-1.68-1.92-0.45-0.053-1.663-0.499-2.4-0.96-0.979-0.179-0.826 0.773-1.92 0.479 0.361 1.578 4.326 1.504 2.64 3.601 1.432-0.436 4.778 1.411 2.881 2.64-0.528-0.9 0.488-0.523 0-1.2-0.034-0.396-1.002 0.251-1.681 0-0.209 0.936 1.657 1.858 2.641 2.4 0.184-0.644 0.903-1.515-0.24-0.96 0.41-0.721 0.873-0.267 1.68-0.24 0.242 0.722-0.534 0.425-0.96 0.479-0.117 0.917 0.849 0.752 1.2 1.2 0.808-0.387-0.755-0.76 0-1.2 0.375 0.826 1.364 1.036 2.16 1.44 0.353-0.524-1.154-1.237-1.2-2.16 0.431-0.03 0.506 0.294 0.96 0.24-0.488-0.872-1.324-1.396-1.92-2.16 0.574-0.226 0.974-0.626 1.2-1.2 1.717 0.043 1.288 2.231 2.399 2.88 1.233-0.139 3.282-0.649 3.601 0.721-1.106 0.905-3.393-0.845-4.08 0.479 1.051 1.27 3.354 1.286 4.32 2.641 1.804-0.103 3.646 1.14 5.039 0-0.076-1.126-0.578-2.943 0.961-3.36 0.076 1.715 0.146 3.636 0 5.28-0.081 0.906-0.299 1.815-0.48 2.399 0.213 0.588 1.34 0.26 1.2 1.2-1.631-0.129-2.601-0.92-4.08-1.2-0.253 1.452 1.004 1.396 2.16 1.44 1.466 1.253 3.724 1.716 5.76 2.399 1.436-0.965 0.62-4.18 1.68-5.52-0.305-2.176-1.186-3.773-1.439-6-1.123-1.678-2.971-2.63-3.36-5.04-1.059-0.861-1.143-2.697-2.16-3.6-0.243-0.797-0.026-2.054-0.96-2.16-0.59 1.157 0.915 2.279 0.96 3.6-0.946-0.174-1.361-0.878-2.16-1.2-0.254-1.639 0.095-2.451 0.24-3.6 0.134-1.06-1.44-1.265-0.72-2.16 2.745 0.071 3.246 4.422 5.04 6.24 0.509 2.691 2.143 4.258 3.359 6.24 0.563-0.567 1.18 0.039 1.921 0 0.777 1.701 2.843 2.117 2.88 4.56 1.03 1.531 2.361 3.453 2.399 5.76 0.043 2.591 0.535 5.578 0.721 8.641 0.099 1.646 0.305 3.584 0.479 5.04 0.724 6.022-1.139 12.056-0.96 18 0.012 0.399 0.266 1.004 0.24 1.439-0.124 2.11-1.068 4.58-1.44 6.72-0.33 1.906-0.205 4.42-1.92 5.28 0.521 2.521-0.991 3.009-2.16 3.84-0.906-0.294-0.709-1.689-0.72-2.88-0.546-0.894-1.54-1.34-1.68-2.64-1.087-0.447-0.418 0.862-0.96 0.96-1.066-0.256-0.283-2.415 0.72-2.16-0.951-2.394-1.375-5.186-1.44-7.44-1.952-3.981-1.717-11-2.64-14.64-1.249 2.854-0.116 6.329-0.24 9.84-0.192 0.127-0.39 0.251-0.72 0.24 0.281 1.376-0.104 2.474 0.24 4.08 0.851 0.349 1.465 0.935 1.439 2.16-0.565 0.587-0.446-0.358-1.199-0.24-0.07 1.859-0.163 5.741 0.72 7.44-0.426-0.055-1.202 0.241-0.96-0.48-1.148 1.316 1.102 4.965-1.2 5.521-0.747-1.389-0.867-3.374-0.96-4.801-1.171 0.436-0.318 0.935-0.24 1.92-0.759 1.512 0.12 3.274-0.479 5.04h-1.2c-0.724-1.192-0.08-2.605 0-3.84 0.173-2.674-0.143-5.207 0-8.399 0.06-1.334 1.126-2.659 0-3.841 0.586-0.886 0.324-2.057 0.479-3.119 0.043-0.295 0.458-0.694 0.48-0.96 0.114-1.393-0.486-2.854-0.48-4.32 0.005-1.084 0.997-2.223 0-3.12-0.63 0.903-0.767 2.865-0.239 3.6-1.247 2.959-0.077 6.313-0.24 9.12-0.026 0.447-0.403 0.73-0.48 1.2-0.288 1.766-0.213 3.853-0.479 5.521-0.124 0.775-0.389 1.364-0.48 2.64-0.94-0.238-0.256-1.021-0.239-1.68 0.051-2.022-0.312-4.779 0.479-5.761-1.282-5.068-3.385-10.23-3.36-16.319 0.006-1.341-0.492-4.103 1.44-4.801-0.045 2.869-1.372 4.942 0 6.961-0.759 2.723 0.331 6.305 0.72 7.92 0.602-0.249 0.76-1.089 1.2-0.24 0.247-0.902-0.282-1.739-1.2-2.4 0.03-4.182-0.729-7.706 0.24-11.279 0.639 0.001 0.612 0.667 0.96 0.96 0.6-0.166-0.445-0.641-0.24-1.2-0.271-0.111-1.157-0.028-0.96-1.2 0.563-0.585 0.537 0.268 0.96 0.479 0.696-0.968 0.153-2.796 0.24-4.319 0.107-1.891 0.528-3.595 0.72-4.8 0.771-0.25 1.049-0.037 1.681-0.721-0.255-0.173-1.745-0.041-1.92-0.96-0.21-0.77 0.369-0.75 0.72-0.96-0.427-0.564-1.021-1.864-0.48-2.64 1.633-0.317 2.285 2.126 0.96 2.64 0.15 0.57 1.478-0.037 1.681 0.48 0.687 2.83 0.344 4.998 1.199 7.92 1.042-0.127 0.131-1.307 0.24-1.92 0.035-0.197 0.446-0.256 0.48-0.721 0.186-2.554 0.021-5.833 0-7.68-2.778-1.542-4.675-3.965-7.681-5.28-0.457-0.662-0.231-2.008-0.96-2.399-0.754 0.409 0.27 1.684-0.239 1.92-2.188 1.252-4.747 2.133-7.2 3.12-1.602-0.161-2.415 0.465-3.84 0.479-1.738 1.096-5.233 1.984-8.16 3.12-1.296 0.503-1.734 0.52-3.36 0.96-3.771 1.022-7.656 3.27-10.08-0.72-2.27-0.211-3.525-1.436-5.28-2.16-0.701 0.179-0.464 1.296-1.44 1.2 1.333 1.467 1.477 4.123 2.16 6.24 0.132 0.532-0.458 0.342-0.48 0.72 0.146 1.293 0.982 1.898 0.96 3.36 0.373 0.853-0.815 0.145-0.72 0.72-0.282 1.324 1.325 1.914 0.24 2.64 0.112 0.982-0.604-0.007-0.96 0 0.21 0.67 0.574 1.186 0.72 1.92-0.319 0.241-0.893 0.228-0.96 0.721-0.894-0.593-0.336-1.145-0.72-2.16-1.215 0.361 0.614 1.677-0.24 2.399-0.923-1.477-1.557-3.243-1.92-5.279 0.627-0.067 1.201-0.081 0.96 0.72 0.88-1.565-1.505-3.075-0.96-4.32 1.067 0.053 0.682 1.559 1.68 1.681 0.728-1.744-1.497-2.463-1.68-4.08-0.142-0.499-0.462-0.818-0.96-0.96-0.114-0.754 0.646-0.635 0.72-1.2-0.428-0.532-0.945-0.976-0.72-2.16-0.36-0.521-1.201-0.56-1.2-1.44 0.486-0.474 1.57-0.35 1.2-1.68 1.047-0.168 1.067 0.693 1.92 0.72 0.31-1.195-1.482-1.52-2.64-1.92-1.226-0.424-2.72-0.78-3.84-0.96 0.62 1.06 0.487 2.873 1.44 3.601-1.567 2.421 1.002 9.015-1.2 12.239 0.104 1.705-0.05 3.15-0.72 4.08-0.181 1.462 0.526 2.034 0.48 3.36-0.477 0.399-0.305-0.021-0.96 0-0.076 1.701 1.839 2.988 1.92 5.28-2.671 0.447 0.157 3.186-0.24 4.56-1.076 0.116-1.072-0.849-1.92-0.96 0.007-4.167-2.815-5.505-3.6-8.88-0.398-0.481-0.644-1.115-1.44-1.2-0.076-0.557 0.039-0.921 0.24-1.2-0.32-0.399-1.36-0.08-1.68-0.479-0.145-5.242 0.527-8.501-0.48-12.96-1.21 1.778 0.164 4.101-0.96 5.28-0.494-0.066-0.226-0.895-0.72-0.961 1.126-2.16 0.641-5.759 0.24-8.399 0.377-0.104 0.205-0.755 0.96-0.48 0.222-2.414-0.208-4.352 0-6.239 1.62-0.02 1.854 1.345 3.12 1.68 0.192-1.319-1.369-2.142-1.92-1.92-0.809-0.791-0.367-2.833-0.48-4.32-0.062-0.498-1.055-0.065-1.2-0.479-0.752 0.166-0.313 0.64-0.24 1.199-0.927 1.152-2.716 5.071-5.04 4.801-1.281-0.149-1.419-1.788-2.4-2.641-0.541-0.47-1.189-0.287-1.68-0.96-0.208-1.024 0.038-1.613-0.96-2.16 0.209 2.113 1.161 5.559 2.16 7.681-0.946 0.065-0.734-1.026-1.68-0.96 0.774 2.512 1.865 5.154 4.56 4.56 2.61-0.575 1.009-4.828 3.84-5.52 0.3 1.297 0.239 2.741-0.24 4.08-0.077 0.214-0.481 0.73-0.479 0.72-0.03 0.28 0.448 0.41 0.479 0.72 0.077 0.75-0.447 1.669-0.479 2.64-0.138 4.075 0.114 7.911-0.24 11.521-0.416 4.237-0.561 8.588-1.2 12.72-0.505 3.267-1.691 6.445-2.16 9.601-0.354 2.379 0.009 4.688-1.2 6.72-0.89 0.17-1.03-0.41-1.92-0.24-0.396-0.964-1.038-1.682-1.68-2.399 0.083-2.994-1.152-6.376-2.4-8.16-2.01-8.314-1.978-19.366-2.16-29.04-0.026-1.385-0.765-2.487-0.96-3.601-0.556-3.176-0.81-7.063 0.24-9.84 0.449-1.187 1.562-2.06 1.92-3.359 0.655-2.379 1.18-4.504 3.84-6-0.019-3.699 0.602-6.759 2.64-8.4-1.396-2.9 1.999-3.9 2.16-5.28 1.826 0.131 2.486-0.062 3.84 0.48 0.121-1.401-0.55-2.011-1.44-2.4-1.524-7.549-1.007-16.833 1.44-23.04v-2.88c2.225-0.055 1.989 0.268 3.84-0.24 0.127-1.793 0.338-3.502 1.68-4.08-0.703-0.185-0.783-2.073 0.48-1.68-0.098-0.462-0.93-0.189-0.72-0.96-0.493 0.468-0.789 1.132-1.2 1.68-0.901 0.181-0.523-0.917-1.2-0.96 0.369 0.818-0.101 2.889-0.24 4.56-1.125 0.51-2.466-0.207-3.12-0.24-3.498 6.999-1.64 15.346-3.6 21.84-0.906 0.106-1.126-0.473-1.68-0.72 0.043 2.538 2.068 4.301 1.2 6.96-2.483-0.397-2.372-3.389-3.84-4.8-0.631 0.408-0.53 1.55-1.2 1.92-1.31-0.53-2.592-1.088-3.6-1.92-0.751 0.048-0.981 0.618-1.44 0.96 0.027 0.453 0.793 0.166 0.72 0.72-1.43 2.25-3.833 3.527-5.52 5.521 1.109 0.57 2.517 0.843 3.6 1.439 0.179 1.22-0.239 1.841-0.96 2.16-1.531-0.31-2.932-0.748-4.56-0.96-0.81 0.471-1.445 1.115-1.68 2.16 0.69 0.505 1.298-0.175 1.92-0.24 3.726-0.395 7.246 1.195 9.6 2.64 0.308 0.948-0.699 0.581-0.72 1.2 0.861 0.659 1.756 1.284 2.4 2.16 0.03 0.431-0.294 0.506-0.24 0.96-1.686 0.385-3.011-0.722-4.56-0.72-4.261 0.005-7.32 3.88-10.8 5.04-0.616 0.024-0.386 0.894-0.72 1.199-0.804 0.076-1.513 0.248-1.92 0.721 0.083 0.637 0.63 0.81 1.2 0.96 3.234-0.686 4.367-3.473 7.92-3.84-0.421 1.281-1.715 1.892-2.4 3.12-0.66 1.183-0.59 2.888-1.92 3.6 0.021 0.341 0.04 0.68-0.24 0.72 0.044 1.847 0.001 2.831 0.24 4.08-1.855-0.327-2.722 2.155-3.12 3.36 0.937 1.729 1.351 4.419 1.2 6 0.164 0.477 0.731 0.549 0.96 0.96-0.257 0.985 0.024 1.787 0.72 2.399 0.591-0.974-1.115-2.804-0.24-4.08 0.68 0.2 0.285 1.475 0.72 1.921 0.558 0.158 1.472 0.141 1.2 1.68 0.969 0.188-0.359-1.149 0.96-0.96 0.325 0.671-0.093 1.565 0.48 2.399 0.359-1.389 0.617-3.439-1.2-3.6-0.578-3.758-0.553-7.783 0-11.28-0.36-0.279-0.587-0.693-1.2-0.72 1.615-3.555 2.449-8.451 6.24-9.12 0.481 0.478-0.076 1.143-0.24 1.68 0.101 0.539 1.273 0.007 1.44 0.48 0.053 0.772-0.425 1.016-0.24 1.92 0.977-0.444 1.263-2.654 2.4-2.16-1.775 1.682-1.654 4.414-2.16 6.96-0.275 1.386-1.058 2.657-1.2 4.08-0.267 2.664 0.92 5.027 0.48 7.681-0.722 0.241-0.425-0.535-0.48-0.961-0.693 0.304-0.107 1.366-0.48 2.4 1.089 0.449 0.327-0.953 1.2-0.72 1.883 6.483 0.843 12.426 1.2 18.24 0.282 4.591 2.987 8.455 3.12 13.439-1.23-2.05-1.685-4.875-2.4-7.439-1.024 1.596 0.707 4.346 0.48 6.72-0.388 0.067-0.413-0.227-0.72-0.24 0.47 0.971 0.05 2.831 1.2 3.12 0.268-1.147-0.748-1.013-0.48-2.16 0.824-0.037 0.506 0.902 0.72 1.44 0.392 0.984 1.321 2.112 0.96 2.88-1.072 0.032-1.133-0.947-1.2-1.92-0.489 0.15-0.067 1.212-0.96 0.96-1.321-2.199-2.176-4.864-2.88-7.681-0.765-0.651-0.679-0.865-0.96-2.159-0.838-0.923-1.48-2.04-1.68-3.601-0.039-0.281-0.438-0.202-0.72-0.24-0.088-0.408 0.188-0.452 0.48-0.479-1.19-0.489-1.192-2.168-2.16-2.88-0.495 0.065-0.058 1.062-0.72 0.96 1.258 1.382 1.707 3.573 2.88 5.04 0.129 0.929-0.611 0.988-0.72 1.68 0.057 0.743 0.668 0.933 0.96 1.44 0.719-0.158-0.229-0.514 0-0.96 0.821-0.102 0.721 0.719 1.2 0.96-0.175 0.885-0.722-0.103-1.2 0.479 0.26 0.7 1.017 0.903 0.96 1.92 0.776 0.297 0.184-0.776 0.96-0.479 0.576 1.379 1.823 3.249 0.96 5.279-0.896 0.097-1.408-0.191-1.44-0.96-0.489 0.151-0.067 1.213-0.96 0.96-1.007-0.433-1.281-1.599-1.68-2.64-0.26 0.06-0.163 0.478-0.48 0.48-1.634-0.217-2.056-1.498-3.12-2.641-0.551-0.592-1.462-0.483-1.44-1.68-2.254-0.545-2.91-2.69-5.52-2.88 0.682-2.062 3.248 0.224 4.32 0.72 0.302-0.06 0.242-0.478 0-0.479 1.472-0.053 3.452 2.109 4.08 3.84-0.261-0.06-0.163-0.478-0.48-0.48-0.316 0.41 0.417 1.812 1.2 1.92 0.448-0.423-0.746-1.781 0.72-0.96-0.753-2.721-2.157-5.126-1.68-8.399-0.212-0.882-1.013-1.44-0.48-2.4-0.347-0.709-0.505 0.748-0.72 0.96-0.515-0.655-1.15-2.189-0.24-2.88-2.603-2.685-3.235-7.52-4.8-11.76-0.316-0.855-1.058-2.178-1.2-3.601-0.365-3.634 0.999-7.191 0.48-11.04-0.616-4.563-3.75-8.401-0.72-11.04 1.222-0.021 1.125 1.274 2.16 1.44 0.447-0.878-1.052-1.588-1.44-2.4 0.68-1.4 1.483-2.677 2.64-3.6-0.527-0.821-0.984 1.17-1.68 0.24-0.349-3.881 2.362-6.749 4.56-8.88 0.052-1.725 1.554-2.146 2.4-3.36 0.683-0.98 1.182-1.621 1.92-2.64 1.134-1.565 1.968-3.691 4.08-4.561 1.247-3.313 3.334-5.786 3.84-9.84 0.94-0.58 2.094-0.946 2.4-2.16 0.691-0.028 1.571 0.131 1.92-0.24-0.348-0.851-0.348-2.509 0-3.36 0.734 0.174 0.706-0.414 1.44-0.24 2.08-2.641 2.868-6.572 5.52-8.64h1.92c0.102-1.133 0.428-1.333 0.48-2.88-0.948-0.222-1.422 2.093-2.88 2.16 0.774-1.739 2.172-3.086 3.84-4.08 1.152-0.687 2.642-0.916 3.84-1.44 1.293-0.566 1.777-0.944 3.6-1.44 1.171-0.319 2.562-0.942 3.84-1.44 3.357-1.309 7.334-3.449 10.8-4.8 0.183-2.377 0.269-4.851 1.92-5.76-0.474-1.207-0.666-2.694-0.96-4.08-1.91-1.344-3.134-3.085-3.84-5.76-0.42-1.589-0.653-3.556-0.96-5.28-0.942-0.738-2.904-0.456-3.84-1.2-0.374-2.359-2.424-2.872-2.16-5.28-0.468 0.412-0.518 1.243-0.48 2.16-0.876 0.156-1.278-0.162-1.68-0.48 0.464-2.293-0.356-3.097-1.44-4.32-1.021 1.015 0.374 1.697 0.48 3.12-1.067 0.107-1.27-0.65-1.92-0.96-0.172-1.373 0.256-2.144 0.24-3.36 1.153-0.438 0.966-1.674 1.68-2.88 0.429-0.725 1.657-1.045 2.16-1.92 0.482-0.839 0.127-2.029 1.44-2.16-0.276-0.284-0.272-0.849-0.24-1.44-1.768-0.792-1.729-3.39-1.92-5.76 0.665-0.935 1.91-1.29 2.88-1.92-0.388-0.732-0.605-1.634-1.44-1.92 0.942-0.91 0.45-2.231 0.96-3.84 1.938-0.542 2.833-2.127 2.88-4.56-0.43-0.578-0.669-1.345-0.24-2.16 3.552 0.114 4.66-3.867 8.16-4.56 0.57-0.55 1.031-1.208 1.92-1.44 0.481-0.082 0.751 0.049 0.72 0.48 2.479-1.149 6.264-0.229 8.16 0.72 1.522-1.323 2.952-2.574 5.76-2.4 2.188 0.136 5.349 1.239 7.44 1.68 0.373 0.079 0.838-0.115 1.2 0 1.425 0.454 2.392 1.54 3.6 1.68 0.835 3.005 3.838 3.843 3.84 7.68 0.5 1.379 2.21 1.375 3.12 2.4 1.325 1.492 1.507 4.217 2.88 5.76 1.806-0.158 3.06 1.355 2.641 2.64-0.257-1.023-1.417-1.144-1.921-1.92-0.653 0.226-0.549 1.211-0.72 1.92 0.231 0.594 0.922-0.331 1.681 0 1.102 0.79 0.045 2.269 0.96 3.12-0.979 1.258-0.771 2.36-1.2 4.32-0.267 1.215-1.512 1.823-1.44 3.36 0.052 1.104 0.924 2.141 0.96 3.36 0.054 1.815-1.287 4.151 0.24 6-0.917 1.195-0.915 2.289-0.48 3.84-1.289 0.32-2.249 0.942-3.359 0.24-0.333 0.387-0.495 0.945-0.96 1.2 1.397 4.945-0.947 10.015-6.48 9.6-0.823-0.216-1.188-0.892-1.92-1.2-0.192 0.127-0.39 0.25-0.72 0.24 0.036 1.831 0.874 3.231 1.2 4.8 0.232 1.119-0.119 2.101 0.479 3.12 0.517 0.877 1.379 0.769 2.4 1.44 0.216 0.142 0.454 0.765 0.72 0.96 0.639 0.468 2.258 1.136 2.88 1.68 0.451 0.394 0.593 1.154 0.96 1.44 0.324 0.253 0.838 0.018 1.2 0.24 1.201 0.736 2.688 2.571 3.84 3.6 3.111-0.231 4.604 1.157 6.96 1.68 0.771 0.21 0.498-0.622 0.96-0.72 1.71 0.372 2.67 1.494 4.08 2.16zm-98.64 64.32c0.72-0.514 0.058-1.165 0.24-2.4-0.454-0.054-0.529 0.271-0.96 0.24 0.409 0.55 0.372 1.55 0.72 2.16zm69.84-135.84c-0.942 0.13-1.606-1.258-2.4-0.48 0.615 0.198 1.645 1.219 2.4 0.48zm-14.4 56.88c0.898-1.022 2.509-1.331 2.88-2.88-0.433 1.312 0.714 1.045 0.96 1.68-0.674 0.375-0.716 1.188-1.2 1.68-1.235 1.255-3.163 1.563-4.32 2.88 1.701 0.177 3.053-1.261 4.08-0.96-0.301 1.299-2.265 0.935-3.12 1.68-0.054 1.014 0.37 1.55 0.48 2.4 0.764-0.357 1.332-0.909 1.2-2.16 0.489-0.071 0.639-0.48 0.96-0.72 5.601-0.879 10.84-2.12 14.64-4.8 0.047-1.234-0.39-1.908-0.48-2.64-0.323-2.61 1.328-4.749 1.44-7.44 1.345-1.055 0.91-3.889 2.64-4.56 1.115 1.446 3.021 0.306 4.32-0.48 0.155-1.468 0.849-3.292-0.24-4.32 1.086 3.283-3.498 5.242-4.56 2.16 0.306-0.494 0.383-1.217 1.2-1.2-0.73-1.896 0.908-2.731 1.68-3.84-0.709-0.913-1.669-4.797-0.24-5.52 0.445 0.515 0.162 1.758 0.24 2.64 1.097-0.137 1.332 0.588 2.16 0.72 0.037-0.282-0.042-0.681 0.239-0.72 0.013-1.761-1.975-2.07-2.64-2.88-0.175-0.213-0.068-0.901-0.24-1.2-0.319-0.557-0.773-0.735-0.96-1.2-0.32-0.802-0.246-1.866-0.72-2.88 0.914-0.263 1.498 0.635 1.68-0.24-0.567-0.712-1.02-1.54-1.439-2.4 0.283-0.116 0.544-0.256 0.72-0.48-0.528-1.286-2.104-2.07-1.439-3.84-1.734-1.387-3.338-2.902-5.04-4.32-1.184-0.016-2.283-0.117-2.4-1.2 0.31-0.331 1.042-0.238 1.68-0.24 0.652-3.058 3.822 0.049 5.28-1.68-0.917 0.177-0.273-0.885 0-0.96 0.877 0.163 1.745 0.334 2.88 0.24 0.122-1.962-1.228-2.452-2.16-3.36-0.274-0.755 0.377-0.583 0.48-0.96-1.112-1.609-2.809-3.91-5.28-3.36 0.477 0.164 0.549 0.731 0.96 0.96-0.413-0.013-0.615 0.185-0.72 0.48 0.484 0.716 1.216 1.184 1.68 1.92-0.51 0.616-1.069 0.423-1.68 0-0.606 0.753-0.318 2.402-1.2 2.88-1.764 0.323-1.995-0.885-3.6-0.72 0.502 1.695 0.381 2.549 0.72 4.08-1.843 0.598-3.545-0.902-5.28-1.2-0.522-0.68-1.38-2.03-2.161-1.68-0.716 1.067-1.084 2.935-2.88 3.36-1.753 0.416-4.222-0.054-4.8-1.68 1.48 0.225 0.353-0.769 0.96-1.2 1.223 0.222 4.367 1.246 5.04-0.24-1.488 0.323-4.271 0.631-4.56-0.96 0.778-0.341 0.775-1.464 1.44-1.92 0.995-0.275 0.936 0.505 1.68 0.48-0.56-1.654 0.511-2.066 2.16-1.68-0.879-1.463-3.295-0.098-5.04-1.44-0.669 1.331-2.835 1.165-4.08 1.92 0.018-0.418-0.054-0.747-0.24-0.96-1.844 0.748-2.256-0.199-3.84 0.24 0.625 1.515-1.906 1.12-0.96 2.16 0.353-0.482 1.623-1.662 2.16-0.48-0.564 0.556-1.454 0.787-1.44 1.92 1.633-0.462 2.21 0.792 3.12 1.68 0.561-0.079 0.992-0.289 1.44-0.48-0.036-1.396 0.446-2.274 1.44-2.64-0.638 2.322-2.123 3.798-3.6 5.28 0.975 0.898 1.967-0.835 2.64-0.24-0.275 1.165-1.795 1.085-2.16 2.16 0.579 0.812 1.275-0.939 1.92 0-0.559 1.441-2.683 1.317-4.32 1.68-0.041 0.88-0.227 3.211 0.96 3.84-0.474 0.166-0.64 0.64-0.72 1.2 0.749-0.206 1.033-0.703 1.68 0-0.412 1.029-1.475 1.405-2.64 1.68 0.56 1.61-2.083 2.725-0.24 3.36 0.398-0.562 0.276-1.644 0.96-1.92 0.576 1.579 2.484-0.352 4.08 0-0.267-1.308 1.167-0.914 0.72-2.4-0.626-0.094-1.317-0.124-1.68-0.48 0.133-0.427 0.124-0.997 0.48-1.2 1.565-0.775 3.08 0.389 4.08 0.96 0.418 1.502 1.445 2.395 2.16 3.6-0.098 1.322-0.513 3.811-1.44 5.04-1.194-0.399 0.566-2.433-0.96-2.64-0.42 0.766-1.843 1.026-2.16 0-0.226 2.083-5.359 0.972-3.12-0.48-0.598 0.122-1.448-0.008-1.44 0.72 0.53 0.271 0.543 1.057 0.72 1.68-1.973 1.108-1.904-1.729-3.36-1.92-0.929 0.967-0.355 2.008-1.2 3.12 0.438 0.842 0.971 1.589 1.2 2.64 0.074 0.553-0.693 0.267-0.72 0.72 1.536 2.702-0.043 4.747 1.2 6.96-1.126 0.407-0.316 1.271-1.2 1.92 0.779 0.783 0.169-1.049 1.2-0.72-0.717 0.745 0.367 1.043 0.479 1.68-0.461 0.579-0.708 1.372-0.72 2.4 1.116 0.403 0.611 2.429 1.44 3.12 0.027-0.292 0.072-0.568 0.48-0.48 0.55 0.825 0.223 1.043 0.48 2.16 0.346 0.531 0.586-0.302 0.72 0.24-0.224 1.184 1.47 0.45 0.96 1.92 1.084-0.285 1.04 0.56 1.2 1.2 0.777 0.297 0.184-0.776 0.96-0.48 0.002 0.638-0.091 1.371 0.24 1.68 0.981 0.261 1.184-0.256 1.44-0.72 0.451 0.458-0.143 0.435 0 1.2 1.578-0.351 2.983 0.829 5.04 0.72 0.53 0.103 0.601-1.442 0.96-0.72-0.284 1.717-2.481 2.794-2.399 4.08zm-9.12-55.2c0.557-0.483 1.207-0.874 1.44-1.68-0.959-0.069-1.777 1.248-1.44 1.68zm13.44 1.44c-0.319 0.036-0.725-0.976-0.96-0.24 0.319-0.035 0.893 0.807 0.96 0.24zm0.96 1.44c0.112-0.752-0.604-0.676-0.96-0.96 0.029 0.611 0.349 0.931 0.96 0.96zm-5.28 1.2c0.384-0.668-1.037-0.664-0.96-0.24 0.324 0.075 0.459 0.342 0.96 0.24zm24.48 18.96c0.581 0.378 1.062 0.858 1.44 1.44 0.493 1.506 1.146 2.854 1.92 4.08 0.386 1.854 0.298 4.182 1.68 5.04 1.304-3.394-0.119-6.693-2.16-8.16 0.104-0.457 0.518-0.603 0.48-1.2-2.349-2.138-0.955-5.812-0.721-8.88 1.354-0.492 1.171-1.337 2.4-0.96-0.418-0.645-1.012-1.71-1.68-2.4-0.582-0.601-1.611-1.877-2.641-1.2 0.731 0.805 0.531 2.752-0.72 2.64 0.095 0.562 1.31 1.229 0.72 1.68-0.724-0.01-2.056-0.646-2.64 0 0.831 1.331 2.286 3.311 1.92 5.04-0.665-0.226-1.016-2.011-1.68-1.44 0.611 1.39 1.369 2.632 1.681 4.32zm-2.4-8.88c0.166-0.646-0.496-0.464-0.72-0.72-0.043 0.524 0.196 0.764 0.72 0.72zm-40.08 2.64h0.48c0.373-0.59-0.815-0.706-0.72-0.24 0.146 0.014 0.284 0.036 0.24 0.24zm47.52 1.68c0.649-0.72-0.396-1.2-0.96-1.44 0.042 0.757 0.169 1.432 0.96 1.44zm-32.4 2.16c-0.147-0.07-0.924-0.597-0.96 0 0.147 0.07 0.924 0.597 0.96 0zm-14.4 0.48h0.479v-0.48h-0.479v0.48zm39.6 1.2c0.578-0.099 0.521 0.438 1.2 0.24 0.002-0.834-0.964-0.786-1.2-0.24zm-40.32 2.16c0.01 0.331-0.113 0.527-0.24 0.72 0.346 0.646 1.522-0.306 0.96-0.48-0.135 0.695-0.374-0.368-0.72-0.24zm42 0.96c-0.406 1.216 2.109 2.602 1.2 4.32 0.563 0.076 0.537 0.743 0.96 0.96 0.573-1.589-0.871-3.087-1.2-4.56 0.308-0.013 0.333-0.308 0.721-0.24 0.461 1.379 0.72 2.96 1.68 3.84-0.608-1.552-0.591-3.729-2.16-4.32-0.083 1.187-0.631-0.2-1.201 0zm-42 1.92c0.057-0.663 0.892-0.547 1.2-0.96-0.436-0.605-2.466 0.195-1.2 0.96zm4.8 0.96c0.29-0.478 0.198-1.025 0-1.2-0.16 0.478-0.828 1.025 0 1.2zm-6.48 2.4c0.679 0.198 0.622-0.338 1.2-0.24 0.098-0.578-0.438-0.521-0.24-1.2 0.655-0.022 0.483 0.399 0.96 0-0.054-1.892-1.943-1.106-3.12-1.44 0.848 0.788 0.484 1.711 1.2 2.88zm4.8-2.16h0.48c-0.001-0.241 0.194-0.286 0.24-0.48-0.307-0.013-0.333-0.308-0.72-0.24v0.72zm0 0.72h0.48v-0.48h-0.48v0.48zm-6.48 0.96c0.386 0.655 0.805-0.352 0.24-0.48 0.001 0.241-0.194 0.286-0.24 0.48zm48 1.92c-0.102-0.459-0.087-1.033-0.72-0.96-0.041 0.601 0.369 0.751 0.72 0.96zm-46.08 0.48c0.32 0.342 1.36 0.342 1.68 0-0.153-1.013-1.59-1.217-1.68 0zm-1.2 0h0.48v-0.48h-0.48v0.48zm45.6-0.24c-0.146-0.07-0.924-0.597-0.96 0 0.147 0.07 0.924 0.597 0.96 0zm0.48 1.68h0.48v-0.48h-0.48v0.48zm-42.24 2.88c0.319 0.312 0.893 0.316 0.96-0.24-0.319-0.312-0.893-0.316-0.96 0.24zm40.56 9.12c0.647 0.619 1.158-0.252 1.199-0.96-0.585 0.133-0.875 0.563-1.199 0.96zm-1.44 2.88c1.562-0.118 2.37-0.99 2.88-2.16-1.203 0.476-2.562 0.799-2.88 2.16zm-20.4 6c0.459-0.101 1.032-0.087 0.96-0.72h-0.96v0.72zm-0.72 0.72h0.48v-0.48h-0.48v0.48zm-2.4 0.96c0.478 0.5 1.025 0.008 1.2-0.48-0.454 0.054-0.53-0.271-0.96-0.24 0.01 0.33-0.113 0.527-0.24 0.72zm-4.08 1.2c0.547 0.067 0.902-0.058 0.96-0.48-0.547-0.067-0.902 0.058-0.96 0.48zm66.72 4.8c-0.427-1.253-1.274-2.085-1.92-3.12 0.29 1.393 1.13 2.228 1.92 3.12zm-8.88 4.56c-0.271-0.529-0.276-1.324-0.96-1.44 0.35 0.674-0.44 1.53 0.96 1.44zm-79.92 8.16c0.053 0.187 0.201 0.279 0.48 0.24 0.783-1.377 1.526-2.793 1.68-4.8-0.613-0.258-0.84 1.034-1.2 0.24-0.252-1.053 0.812-0.788 0.72-1.68-0.985 0.455-2.072 0.808-2.88 1.44 0.427 0.144 0.997-0.703 1.2 0-0.341 1.356-1.559 2.893-0.24 4.08 0.542-0.418 0.157-1.763 0.96-1.92-0.154 0.886-0.387 1.693-0.72 2.4zm85.92-4.8c0.117-0.62-0.849-1.361-1.2-0.72 0.43 0.215 0.31 0.974 1.2 0.72zm4.8 2.4c-0.187-0.934-0.191-2.049-0.96-2.4-0.56 0.863 0.22 2.079 0.96 2.4zm-51.6 2.88c0.026-0.453 0.793-0.167 0.72-0.72-0.281-0.582-1.507 0.32-0.72 0.72zm-15.12-0.72h-0.96c-0.381 1.116 1.24 0.833 0.96 0zm13.44 0.96c0.662 0.308 1.175-0.699 0.721-0.72 0.094 0.575-1.094-0.133-0.721 0.72zm-39.36 3.12c0.971-0.332 0.759 0.521 1.44 0.48 0.298-1.284 0.827-2.169 0.48-3.36-1.127 0.473-0.68 2.519-1.92 2.88zm87.12-1.68c0.52-0.498 0.013-0.818-0.48-0.96-0.07 0.547 0.06 0.902 0.48 0.96zm0.72 1.2c0.7 0.353 0.7-1.073 0-0.72v0.72zm-90.96 3.84c0.403-0.919 0.282-3.366 0-3.6 0.058 0.807-0.432 2.643 0 3.6zm3.6 1.68c-0.355-1.19 0.699-2.586-0.24-2.88-0.082 0.777-1.156 2.814 0.24 2.88zm2.88-0.96c-0.346 0.128-0.586-0.936-0.72-0.24 0.246-0.028 0.486 1.035 0.72 0.24zm-0.24 2.64c0.003-0.317 0.421-0.219 0.48-0.48-0.543-0.177-0.525-0.915-1.2-0.96 0.186 0.534 0.138 1.301 0.72 1.44zm-3.84 2.16c-0.066-0.421 0.676-1.197 0-1.44-0.139 0.512-0.826 1.307 0 1.44zm94.32-0.48c0.165-0.805-0.402-0.877-0.96-0.96-0.16 0.805 0.4 0.878 0.96 0.96zm-107.52 7.2c0.093 0.53-0.436 1.682 0.48 1.681 0.152-0.834-0.418-1.951 0.24-3.12-0.845-1.271-1.359-4.244 0-4.8 0.013-0.413-0.185-0.615-0.48-0.72-1.339 1.8-0.574 5.05-0.24 6.96zm11.04-2.4c0.741 0.913-0.812 1.579-0.72 2.64 0.787-0.014 0.917-0.683 1.92-0.479-0.203-1.083 0.562-1.199 0.72-1.921-1.53-0.283 0.275-2.5-0.96-2.879 0.246 1.445-0.537 1.862-0.96 2.639zm20.4 6.72c-3.877-1.63-9.129-3.381-13.92-3.84-0.789-0.076-1.953-0.412-2.4 0.24 2.254 0.566 3.568 1.26 5.52 1.92 1.606 0.543 3.463 0.832 5.04 1.439 1.169 0.45 2.136 1.235 3.36 1.681 1.285 0.467 2.524 0.675 3.84 1.199 0.02 0.78 0.124 1.477 0.48 1.92 0.253-1.187 2.2-0.68 3.12-1.199-1.437-1.36-3.787-1.81-5.04-3.36zm-28.32-2.88c-0.033-0.447-0.158-0.803-0.48-0.96-0.303 0.28-0.192 1 0.48 0.96zm7.44-0.72c-0.098 0.578 0.438 0.521 0.24 1.199h0.96c0.328-0.307 0.328-1.133 0-1.439-0.578-0.1-0.522 0.44-1.2 0.24zm19.2 8.88c0.307 0.013 0.332 0.308 0.72 0.239 0.013-0.412-0.185-0.615-0.48-0.72 0.001 0.24-0.194 0.29-0.24 0.48zm10.56 1.2h0.72v-0.72h-0.48c-0.013 0.31-0.308 0.33-0.24 0.72zm9.84 0.24c0.283-0.037 0.682 0.041 0.721-0.24-0.472 0.072-0.477-0.323-0.721-0.479v0.72zm-15.6 0.24h0.48v-0.48h-0.48v0.48zm-3.12 0.96c0.529 0.887 1.423 1.562 2.16 1.68 1.693 0.271 2.703-1.501 4.32-1.68 0.035-0.596 0.044-1.165-0.48-1.2-1.322 1.61-3.732 2.38-6 1.2zm7.68 1.92c0.628-0.749 0.461-2.664-0.72-1.92 0.947-0.07 0.07 1.69 0.72 1.92zm63.84-1.68c-0.233 0.871 1.341 0.512 1.199 0-0.6-0.03-0.74-0.45-1.2 0zm-95.04 1.44c-0.377 0.023-0.833-0.032-0.72 0.48 1.188 0.572 2.524 0.996 3.12 2.16-0.527-0.273-0.981-0.62-1.92-0.48 0.414 1.106 2.305 0.736 2.4 2.16h1.44c-0.216-0.636-1.299-1.125-0.24-1.68-0.356-0.284-1.072-0.208-0.96-0.96 1.188-0.068 1.432 0.808 2.4 0.96 0.02-1.3-1.782-0.778-1.68-2.16-2.024-0.139-3.455-2.142-5.28-1.68 0.572 0.31 1.301 0.46 1.44 1.2zm-1.92 0.72c1.587 0.42-1.942-0.61 0 0zm32.88 1.92c0.361-0.438 1.035-0.565 1.44-0.96-0.047 0.687-0.03 1.31 0.72 1.199-0.077-0.563-0.379-0.9-0.24-1.68-1.094 0.294-0.942-0.658-1.92-0.479 0.337 0.84-0.673 1.54 0 1.92zm-34.56-0.24c0.854 0.033 2.605 0.88 2.88 0-1.184-0.097-1.577-0.983-2.88-0.96v0.96zm29.04 2.16c-0.313-1.018 0.731-1.901-0.24-2.16 0.064 0.96-0.605 1.69 0.24 2.16zm-26.64-0.96c-0.578 0.098-0.521-0.438-1.2-0.24-0.37 0.72 1.242 0.63 1.2 0.24zm32.64 1.68c0.83-0.195 1.013 0.448 1.44 0-0.635-0.561 0.372-2.048-0.48-1.92-0.138 0.86 0.161 1.63-0.96 1.92zm-35.52 0c1.187-0.06 2.131 1.379 3.12 0.72-0.995-0.13-1.956-1.55-3.12-0.72zm2.4-0.24c-0.101-0.858-0.765-1.154-1.68-1.199 0.055 0.9 0.625 1.29 1.68 1.2zm9.84-0.72h0.48c0.373-0.591-0.815-0.706-0.72-0.24 0.147 0.01 0.284 0.04 0.24 0.24zm-32.16 3.12c-0.255 0.865-1.609 0.631-1.92 1.439 3.834-1.143 6.975-3.168 11.76-2.159v-0.96c-3.007-0.606-6.92-0.042-9.84 0.239-0.572-0.147-0.395-1.046-1.44-0.72-0.333 1.53 1.739 0.66 1.44 2.16zm27.12-2.16c-0.655-0.021-0.483 0.399-0.96 0-0.373 0.72 1.332 0.72 0.96 0zm-2.16 4.08c0.04-0.279 0.379-0.261 0.72-0.24-0.173-0.787-0.983-0.937-1.92-0.96-0.89-1.352-3.589-2.168-4.8-2.399 1.594 1.61 4.168 2.23 6 3.6zm9.36-3.36h0.48c0.373-0.59-0.815-0.705-0.72-0.239 0.146 0.01 0.284 0.04 0.24 0.24zm-8.64 1.2h-0.96c0.024 0.555 1.056 1.319 1.44 0.72-0.314-0.003-0.306-0.665 0-0.72 0.939 0.102 1.016 1.064 2.16 0.96 0.082-0.744-0.556-1.146 0-1.68-0.85-0.421-0.59 0.159-1.44 0.24-0.869-0.251-1.113-1.128-2.4-0.96 0.005 0.71 1.196 0.22 1.2 1.44zm30-0.72c0.083 0.558 0.155 1.125 0.96 0.96 0.133-0.558-0.042-1.015-0.24-1.68-0.256 0.22-0.075 0.88-0.72 0.72zm-6.24 1.92c0.208-0.236 0.1-1.511-0.24-1.92 0.146 0.57-0.301 1.74 0.24 1.92zm-26.88 0.24c-1.285-0.715-2.519-1.481-4.08-1.92 0.502 1.34 2.463 2.49 4.08 1.92zm33.36 0.72c0.441-0.008 1.056-1.69 0.48-1.2v0.48c-0.663-0.38-1.077 0.62-0.48 0.72zm-36.96 1.68c4.175 1.265 6.725 4.155 11.04 5.28-2.406-2.795-7.098-3.303-9.6-6 2.239 0.801 4.19 1.89 6.48 2.64 1.043 0.99 2.992 2.243 4.08 2.4-1.15-1.49-3.332-1.949-4.32-3.6 1.039 0.296 2.909 1.862 3.6 0.96-2.128-0.832-3.476-2.444-6-2.88 0.057 0.99 2.225 1.124 1.68 1.92-2.792-0.488-3.66-2.9-6.96-2.881 1.004 1.02 0.31 0.87 0 2.16zm7.68-1.44c0.013 0.252 0.308 0.188 0.24-0.24-0.819-0.44-1.133-0.13-0.24 0.24zm1.92 1.44c0.166-0.645-0.496-0.464-0.72-0.72-0.165 0.64 0.496 0.46 0.72 0.72zm1.2 0.24c0.134 1.066 1.449 0.951 2.16 1.44 0.316-0.601-0.949-0.752-0.24-0.96 0.146 0.138 1.139 0.562 1.2 0-0.84-0.521-1.488-1.232-2.64-1.44 0.07 0.56 0.603 1.12-0.48 0.96zm19.68 2.64c-0.174-1.062 0.862-2.623-0.24-3.119 0.147 0.66-0.591 2.58 0.24 3.12zm-26.88 0c-0.789-1.211-2.16-1.839-3.84-2.159 0.584 1.29 2.617 2.29 3.84 2.16zm11.28-0.96c0.282-0.037 0.681 0.042 0.72-0.239-0.694 0.289-1.094-1.439-1.2-0.24 0.293 0.03 0.568 0.07 0.48 0.48zm41.52-0.48h0.721c0.03-0.431-0.238-0.562-0.721-0.48v0.48zm-0.24 1.2c0.98 0.199-0.508-2.077-0.96-1.2 0.412 0.31 0.944 0.5 0.96 1.2zm-41.76 0.96c-0.99-0.53-1.741-1.3-2.88-1.681-0.021 1.39 1.885 2.11 2.88 1.68zm-18-0.24c0.737 0.367 0.737-1.567 0-1.2v1.2zm6.72 0.48c-0.328-0.551-1.164-0.596-1.68-0.96 0.029 0.7 1.423 1.28 1.68 0.96zm27.36 1.44c0.458-0.581-0.262-1.166 0.24-1.92-0.307-0.014-0.333-0.308-0.72-0.24-0.316 0.72 0.254 1.34 0.48 2.16zm19.44-1.68c0.394 0.886 1.713 0.846 2.399 1.439 0.041 0.682-0.812 0.469-0.479 1.44 0.685 0.049 1.589 1.112 2.16 0.479-1.072-0.63-1.4-1.572-1.2-2.64-0.767-0.3-2.222-1.83-2.88-0.72zm-44.16 0.24c0.227-0.597-1.374-0.069-0.48 0 0.392-0.02 1.044 0.4 0.48 0zm-1.92 1.68c-0.816-0.384-1.282-1.118-2.4-1.2-1.068 1.25 1.533 1.9 2.4 1.2zm0.24-0.72c1.037 0.248 2.182 1.65 3.36 0.96-1.076-0.19-2.499-2.1-3.36-0.96zm5.52 0.72c-0.701-0.348-2.046-1.303-2.64-0.96 0.771 0.3 2.127 1.93 2.64 0.96zm21.12 0.96v-0.96c-0.282 0.037-0.681-0.041-0.72 0.24 0.575-0.1-0.133 1.09 0.72 0.72zm-24.72 1.44c-1.902-0.42-4.105-1.812-5.76-1.68 1.444 0.88 3.876 2.04 5.76 1.68zm54.24-1.68c-0.193 1.45 1.1 0.16 0 0zm-59.04 1.44c-0.424-0.216-0.701-0.58-1.2-0.721-0.002 0.5 0.964 1.25 1.2 0.72zm29.04-0.24v0.479c0.591 0.373 0.706-0.814 0.24-0.72-0.013 0.15-0.036 0.28-0.24 0.24zm-26.16 2.64c-1.697-0.383-2.827-1.332-4.32-1.92 0.653 1.27 2.841 2.27 4.32 1.92zm0.96-1.2c-0.956-0.084-1.558-0.521-2.4-0.72 0.213 0.68 1.731 1.3 2.4 0.72zm25.68-0.48c-1.189 0.32-0.375 1.13 0 0zm-28.08 3.12c-1.154-1.009-2.856-2.74-4.32-2.641 1.378 0.94 2.269 2.37 4.32 2.64zm-16.8 5.04c0.418-1.295 0.479-2.87 0.72-4.32 0.198-1.191 1.435-2.728 0.24-3.36-0.265 2.46-1.857 4.86-0.96 7.68zm44.4-5.04c0.347-0.058 0.558-1.976-0.24-1.681 0.326 0.73-0.895 1.64 0.24 1.68zm33.12-0.48c0.073-0.633-0.501-0.619-0.96-0.72-0.073 0.63 0.333 0.79 0.96 0.72zm-82.32 1.68h0.96c-0.004-0.637 0.133-1.414-0.48-1.44-0.213 0.43-0.67 0.61-0.48 1.44zm48.48 2.4c0.49 0.071 0.471 0.649 0.96 0.72-0.814-0.784 0.583-2.708-0.48-2.88 0.216 1.1-0.4 1.36-0.48 2.16zm6.96-1.44c-0.664 0.91 0.881 1.06 0 0zm-22.56 3.12c0.441 0.339 1.057 1.891 1.44 0.96-1.543-0.7-2.322-3.435-4.32-2.881 0.624 0.63 1.994 1.24 2.88 1.92zm23.04 3.84c0.086-0.729 0.155-3.295-0.24-4.32-1.191 1.31-0.764 3.63 0.24 4.32zm-59.76-2.16c0.74 1.1 0.548 3.132 2.16 3.359-0.541-1.219 0.114-3.633-0.48-4.8 0.207 1.25-0.847 1.23-1.68 1.44zm8.16 0.72c0.204-0.2 0.657-1.876-0.24-1.68-0.201 0.86-0.776 1.32 0.24 1.68zm26.88-0.72c-0.342-0.058-0.405-0.396-0.72-0.48-0.21 0.49 0.622 1.08 0.72 0.48zm18 0.24c0.065-0.327-0.148-0.938-0.24-0.48-0.065 0.33 0.149 0.94 0.24 0.48zm-14.88 2.88c-0.093-1.667-0.955-2.565-1.92-3.36-0.311 1.18 1.422 2.21 1.92 3.36zm-4.08-1.92c-0.495-0.065-0.057-1.063-0.72-0.96-0.209 0.64 0.586 1.46 0.72 0.96zm66.96 1.92c0.196-0.175 0.644-1.661-0.24-1.44-0.17 0.6-0.24 0.99 0.24 1.44zm-92.16-0.48c1.666 0.286 0.592 2.071 1.68 2.641 0.728-1.38-0.825-4.21-1.68-2.64zm-8.88 3.84c0.401-0.764-0.373-2.098-0.48-3.12-0.529 0.89-0.085 2.56 0.48 3.12zm36.24-1.44c-0.26-0.474-0.568-2.134-1.2-1.44 0.662 0.22 0.386 1.37 1.2 1.44zm62.4 0c-0.035 1.038 2.066 1.768 1.92 0.24h0.72c-0.121-0.6-0.453-0.986-0.72-1.44-0.39 0.65-1.07 1.01-1.92 1.2zm-89.76 6c0.057 1.273 0.984 0.185 1.68 0.72-0.363-2.837-0.309-6.091-1.92-7.68-0.168 2.829 1.671 4.86 0.96 7.439-0.343-0.06-0.405-0.4-0.72-0.48zm27.6-1.92c0.223-0.726-0.343-1.867 0-1.92 0.749 0.371 0.273 1.967 1.44 1.92 0.054-1.814-0.664-2.855-1.68-3.601-0.066 0.421 0.676 1.198 0 1.44-1.202-0.159-0.997-1.724-1.92-2.16 0.748 1.41 1.016 3.3 2.16 4.32zm66.72-4.32c-0.212-0.185-0.685 0.147-0.72 0.24-0.34 0.9 1.19 0.17 0.72-0.24zm-97.92 7.68c-0.152-2.236-2.089-3.735-1.2-6.239-0.434-0.446-1.212-0.549-1.92-0.721 1.609 1.75 1.348 5.37 3.12 6.96zm42.96-0.96c-0.986-2.134-1.542-4.698-3.36-6 0.797 2.16 2.097 5.1 3.36 6zm-0.72-3.84c0.249-0.227 0.219-1.236-0.48-1.2-0.035 0.6-0.044 1.16 0.48 1.2zm-13.92 1.2c2.081 1.999 2.584 5.575 4.56 7.68-1.033-3.527-2.486-6.634-4.08-9.6-0.273 0.53-0.619 0.98-0.48 1.92zm-29.76 5.52c0.218-1.153-1.406-1.738-0.24-2.399-0.896-0.384-1.061-1.499-1.68-2.16-0.294 1.654 1.148 1.572 0.72 3.36 1.154-0.35 0.221 1.38 1.2 1.2zm2.16-4.08c0.418-0.019 0.747 0.053 0.96 0.239v-0.72c-0.547-0.07-0.902 0.06-0.96 0.48zm27.84 0.48c-0.041-0.359 0.085-0.886-0.24-0.96-0.312 0.32-0.316 0.89 0.24 0.96zm-26.64 1.68c0.041-0.979 1.543 0.458 1.44-0.96-0.502-0.522-0.685 0.12-1.44 0 0.018-0.336-0.054-0.918-0.24-0.479 0.138 0.42-0.29 1.41 0.24 1.44zm40.08 1.2c0.045-0.675 0.783-0.657 0.96-1.2-1.375 0.336-0.951-1.129-2.16-0.96 0.13 0.99 0.614 1.63 1.2 2.16zm-12 2.16c0.666 1.233 1.292 2.933 2.16 3.12-0.409-0.099 0.051-0.31 0-0.72-0.25-0.87-1.127-1.113-0.96-2.4-1.337-0.663-1.19-2.81-2.4-3.6-0.736 0.93 0.543 2.38 1.2 3.6zm-2.88 1.68c3.225 0.456 3.074 6.122 5.76 8.4 0.25-4.514-3.171-6.342-3.84-10.32-0.655 0.175-0.483-0.477-0.96-0.479-0.58 0.54-1.089 1.15-0.96 2.4zm61.68-1.68c0.598 0.227 0.07-1.374 0-0.48 0.02 0.39-0.4 1.04 0 0.48zm-82.8 0.72c-0.193 1.45 1.1 0.16 0 0zm78 0.96c-1.064 1.032-0.301 2.624-0.239 4.08 0.636-1.057 0.004-1.903 0.72-2.88 1.196 0.243 0.563 2.316 1.439 2.88 0.329-1.353 0.447-3.805-0.239-4.319 0.069 1.68-1.174 0.61-1.681 0.24zm-80.64 0.48c-0.327 1.207 0.966 0.793 1.44 1.2 0.054-0.187 0.006-0.474 0.24-0.48-0.16-1.15-0.617-0.76-1.68-0.72zm-2.16 0.72c2.087 0.794 1.637 4.123 3.36 5.28-0.62-2.261-1.171-4.589-2.64-6 0.073 0.55-0.693 0.27-0.72 0.72zm5.52 1.2c0.418-0.415 0.266-1.484-0.24-1.68-0.418 0.41-0.265 1.48 0.24 1.68zm1.44 9.36c-1.008-2.965 0.482-6.989-1.68-8.641-0.007 2.62 0.326 6.18 1.68 8.64zm-2.88-6.24c0.7 0.353 0.7-1.073 0-0.72v0.72zm78.48 0.96c0.04-0.28 0.379-0.261 0.72-0.24-0.107-0.613-0.337-1.104-0.72-1.439 0.199 0.63-0.726 1.32 0 1.68zm0.24 1.92c-0.143-0.497 0.297-1.577-0.239-1.68-0.028 0.81-0.481 1.27 0.239 1.68zm10.08-0.24c0.013-0.413-0.185-0.615-0.479-0.72-0.01 0.41 0.18 0.62 0.48 0.72zm-9.6 1.44c0.04-0.601-0.369-0.752-0.72-0.96-0.068 0.63 0.087 1.03 0.72 0.96zm-0.72 3.6c-0.869 1.13 1.405 0.32 0 0zm-76.32 2.16c0.35-0.378-0.072-1.338-0.48-1.68-0.175 0.56-0.608 1.79 0.48 1.68zm1.2 1.68c-0.499-0.141-0.775-0.504-1.2-0.72-0.332 0.84 1.078 1.13 1.2 0.72zm6.48 2.4h0.48v-0.48h-0.48v0.48zm0.96 4.8c-0.174-0.734 0.414-0.706 0.24-1.439-0.307-0.014-0.333-0.309-0.72-0.24-0.365 0.75 0.153 1.03 0.48 1.68z" />
	<path d="m131.28 45.84c-0.587 1.951 1.572 3.226 1.681 5.28 1.34 1.478 1.867 3.368 2.64 5.28 1.061 2.625 2.59 5.37 3.12 8.4-0.575 0.146-1.095 0.345-1.92 0.24-0.47-0.449-0.074-0.879 0-1.44-2.398-6.082-4.677-12.283-7.681-17.76 0.338-0.862 0.807-1.594 1.92-1.68 1.542 0.875 3.441 4.685 3.36 6.24-0.82-1.737-1.62-3.499-3.12-4.56z"/>
	<path d="m122.4 45.6c0.501-1.446 3.215-1.454 4.561-0.72-0.065 0.495-1.063 0.057-0.961 0.72 1.476 3.928 4.094 7.1 6.24 10.8 1.2 2.069 2.499 5.309 3.601 7.92-0.83 0.195-1.014-0.448-1.44 0 1.268 4.737 5.097 8.177 4.8 13.68-1.735-1.096-1.312-3.336-2.16-5.04-0.33-0.664-1.093-1.232-1.439-1.92-1.142-2.268-1.306-5.145-3.36-6.72-0.978-3.742-3.398-6.041-4.319-9.84 2.602 2.758 3.898 6.821 6.479 9.6 0.233-0.007 0.187-0.294 0.24-0.48-2.932-6.188-6.521-11.719-10.32-17.04-0.81-0.15-1.07-0.852-1.92-0.96z" fill="blue"/>
	<path d="m63.84 86.88c-1.767 0.713-3.429 1.531-3.6 3.84-1.633-0.28-0.298-1.573-0.72-2.4 1.859-0.006 2.671-1.983 4.32-1.44z"/>
	<path d="m85.44 181.68c-0.536 1.101-0.444 3.678-0.72 5.04 0.53 0.965 2.109 1.974 1.68 3.12-0.47 0.399-1.417-0.18-1.439-0.96-0.362 1.219-0.751 3.212-2.4 2.399 0.113-1.919 1.476-3.759 0.72-5.76-0.043-0.523 0.196-0.764 0.72-0.72-0.04-0.681-0.439-1-0.479-1.681 2.462-3.985-2.577-6.207-4.08-9.119 0.225-0.177 0.363-0.437 0.48-0.721 2.497 0.543 2.479 3.601 4.319 4.8 0.988-1.292 0.551-3.262 0.721-5.04 0.082-0.864 0.386-1.7 0.479-2.64 0.233-2.34-0.709-5.221 1.68-6-0.104 1.096 0.243 2.643-0.239 3.36 0.218 0.662 1.373 0.386 1.439 1.2-0.678 0.198-0.621-0.339-1.2-0.24-0.453 0.026-0.166 0.793-0.72 0.72 0.315 4.805 2.375 7.865 3.36 12-1.915-1.686-2.018-5.183-3.601-7.2-0.544 2.132-1.194 4.249-0.72 6 0.512 1.888 2.625 2.703 2.88 4.561 1.062 1.127 2.431 3.13 2.4 4.56-1.363 0.163-0.925-1.475-1.44-2.16-1.419-1.7-1.898-4.34-3.84-5.52z" />
	<path d="m95.28 180.96c0.669 0.45 0.807 1.433 1.2 2.159-0.9 0.73-0.745-1.65-1.2-2.16z"/>
	<path d="m87.36 27.84c-1.701 0.224-3.565-1.367-4.8-2.4-1.727 0.269-4.556-0.382-6.24 0.48 1.063 1.336 3.867 0.933 5.521 1.68 0.481 0.489-0.106 0.471-0.24 0.96 1.484 0.755 2.827 1.652 3.84 2.88 0.29-1.009-0.388-1.052-0.479-1.68 0.912-0.678 1.797 0.331 2.399 0.72v0.96c-1.79-0.03-1.885 1.636-3.84 1.44-0.383-1.046 0.834-0.868 0.24-1.44-0.914-0.181-2.453 1.826-4.32 0.72-0.645 0.35 0.899 1.253 0 1.92-1.928 0.008-2.148-1.692-3.12-2.64 0.272-1.168 1.532-1.348 1.68-2.64-1.009 0.954-2.408 0.649-3.6 0-0.109-2.428 1.599-3.039 2.159-4.8 3.65-1.219 9.556 0.933 10.8 3.84z"/>
	<path d="m129.36 144c-0.858 0.518 0.729 1.781 0 3.119-0.315-0.084-0.377-0.422-0.72-0.479-0.232 1.162 0.694 0.556 1.2 0.479 0.121 0.754-0.566 0.981 0.239 1.2 0.542-0.179 0.094-1.346 0.24-1.92 1.705 2.004 0.411 5.432 0 7.2-0.667-0.293-0.445-1.475-0.479-2.4-1.025 1.505 0.028 3.182-0.48 5.28-1.331-0.637-0.437-3.084-0.72-5.52-0.206-1.773-0.759-5.023-1.44-6.721-0.15-0.376-0.607-0.634-0.72-0.96-0.352-1.025 0.011-2.594-0.72-3.359 0.588-0.372 1.562-0.358 2.399-0.48 1.39 1.971 2.67 4.05 3.601 6.48 0.607 0.617 2.009 3.374 0.479 3.84 0.111-2.431-0.73-3.909-1.68-5.28-0.5 0.08-1.43 0.68-1.2-0.48zm-0.72-0.96c-0.178-0.702-0.58-1.18-0.96-1.68 0.32 0.56-0.03 1.79 0.96 1.68z" />
	<path d="m132.96 184.32c-1.698 0.648-2.203 3.683-4.32 3.12-0.902 1.695-1.604 3.288-0.24 4.8-0.572 0.389-1.058 0.862-1.68 1.2-1.711-1.409-5.046-1.194-5.28-4.08 0.728-0.312 1.384-0.695 2.16-0.96-0.384-1.077-0.714-3.313-2.64-2.64-0.329-0.307-0.329-1.134 0-1.44-1.09 0.331-1.599 2.319-3.12 1.44-0.171-1.257 1.08-1.492 1.68-2.16 2.212-2.466 3.839-5.42 6.24-7.68-0.062-0.941 0.868-0.893 0.72-1.92 4.116-4.204 7.113-9.527 8.88-16.08 0.648-0.072 0.431-1.01 0.96-1.2-0.042-4.002 2.113-7.8 2.88-10.8 0.284-1.109-0.454-3.248 1.681-2.881 0.434 4.516-2.429 7.012-2.16 10.561-0.263 0.537-0.397 1.202-0.721 1.68-0.211 0.771 0.792 0.329 0.721 0.96-0.541 4.26-1.918 7.683-3.12 11.28 0.125 0.487 0.585-0.667 0.96-0.72 0.906 1.711-0.527 3.148-1.2 4.08 0.077 0.948 0.743-0.178 0.96 0.479-1.729 5.871-5.397 9.803-8.16 14.641 0.135 0.345 0.375 0.585 0.721 0.72 1.499-0.675 2.243-2.264 3.119-3.601 0.838-1.276 1.385-3.025 2.881-3.6 1.293 1.64-1.45 2.681-1.681 4.32 0.152 0.728 1.101 0.659 1.44 1.199-1.211 1.35-1.455 3.665-3.601 4.08-0.32-1.64 1.63-2.98 1.92-4.8zm-4.08-3.36c-0.212 1.948-1.917 2.402-2.641 3.84 0.862 1.108 2.218-0.277 2.4-0.96 0.088-0.332 0.354-0.046 0.479-0.24 0.14-0.215 0.046-0.973 0.24-1.44 0.393-0.945 1.493-1.237 1.2-2.399 0.635-0.021 1.246-1.292 0.72-1.681-0.84 0.92-0.9 2.62-2.4 2.88zm-0.48 0c0.061-0.415-0.452-1.422-0.72-0.721 0.58-0.1-0.13 1.09 0.72 0.72zm-1.92 1.92c0.014-0.146 0.036-0.284 0.24-0.24-0.027-0.293-0.072-0.568-0.48-0.48 0.04 0.28-0.04 0.68 0.24 0.72zm-2.16 5.52c0.413 0.013 0.615-0.185 0.72-0.479-0.38 0.02-0.83-0.03-0.72 0.48z" fill="blue"/>
</g>
<metadata><rdf:RDF><cc:Work><dc:format>image/svg+xml</dc:format><dc:type rdf:resource="http://purl.org/dc/dcmitype/StillImage"/><cc:license rdf:resource="http://creativecommons.org/licenses/publicdomain/"/><dc:publisher><cc:Agent rdf:about="http://openclipart.org/"><dc:title>Openclipart</dc:title></cc:Agent></dc:publisher><dc:title>choir boy</dc:title><dc:date>2012-02-12T13:20:51</dc:date><dc:description>a singing choir boy from The Salt Lake City Herald, Feb 22, 1902</dc:description><dc:source>http://openclipart.org/detail/168129/choir-boy-by-johnny_automatic</dc:source><dc:creator><cc:Agent><dc:title>johnny_automatic</dc:title></cc:Agent></dc:creator><dc:subject><rdf:Bag><rdf:li>boy</rdf:li><rdf:li>child</rdf:li><rdf:li>choir</rdf:li><rdf:li>clip art</rdf:li><rdf:li>clipart</rdf:li><rdf:li>person</rdf:li><rdf:li>religion</rdf:li><rdf:li>singing</rdf:li></rdf:Bag></dc:subject></cc:Work><cc:License rdf:about="http://creativecommons.org/licenses/publicdomain/"><cc:permits rdf:resource="http://creativecommons.org/ns#Reproduction"/><cc:permits rdf:resource="http://creativecommons.org/ns#Distribution"/><cc:permits rdf:resource="http://creativecommons.org/ns#DerivativeWorks"/></cc:License></rdf:RDF></metadata></svg>
